<svg id="visual" viewBox="0 0 960 540" width="960" height="540" xmlns="http://www.w3.org/2000/svg" xmlns:xlink="http://www.w3.org/1999/xlink" version="1.1"><path d="M0 301L17.8 311.7C35.7 322.3 71.3 343.7 106.8 344.7C142.3 345.7 177.7 326.3 213.2 312.3C248.7 298.3 284.3 289.7 320 297C355.7 304.3 391.3 327.7 426.8 334.5C462.3 341.3 497.7 331.7 533.2 323.7C568.7 315.7 604.3 309.3 640 316.8C675.7 324.3 711.3 345.7 746.8 345.7C782.3 345.7 817.7 324.3 853.2 309.7C888.7 295 924.3 287 942.2 283L960 279L960 541L942.2 541C924.3 541 888.7 541 853.2 541C817.7 541 782.3 541 746.8 541C711.3 541 675.7 541 640 541C604.3 541 568.7 541 533.2 541C497.7 541 462.3 541 426.8 541C391.3 541 355.7 541 320 541C284.3 541 248.7 541 213.2 541C177.7 541 142.3 541 106.8 541C71.3 541 35.7 541 17.8 541L0 541Z" fill="#5f72be"></path><path d="M0 375L17.8 367.2C35.7 359.3 71.3 343.7 106.8 339C142.3 334.3 177.7 340.7 213.2 348.5C248.7 356.3 284.3 365.7 320 374C355.7 382.3 391.3 389.7 426.8 379.8C462.3 370 497.7 343 533.2 341.2C568.7 339.3 604.3 362.7 640 364.7C675.7 366.7 711.3 347.3 746.8 337.8C782.3 328.3 817.7 328.7 853.2 337.8C888.7 347 924.3 365 942.2 374L960 383L960 541L942.2 541C924.3 541 888.7 541 853.2 541C817.7 541 782.3 541 746.8 541C711.3 541 675.7 541 640 541C604.3 541 568.7 541 533.2 541C497.7 541 462.3 541 426.8 541C391.3 541 355.7 541 320 541C284.3 541 248.7 541 213.2 541C177.7 541 142.3 541 106.8 541C71.3 541 35.7 541 17.8 541L0 541Z" fill="#9c70bd"></path><path d="M0 357L17.8 359.2C35.7 361.3 71.3 365.7 106.8 367C142.3 368.3 177.7 366.7 213.2 363.3C248.7 360 284.3 355 320 364.8C355.7 374.7 391.3 399.3 426.8 405.3C462.3 411.3 497.7 398.7 533.2 397.7C568.7 396.7 604.3 407.3 640 412.3C675.7 417.3 711.3 416.7 746.8 416.2C782.3 415.7 817.7 415.3 853.2 404.3C888.7 393.3 924.3 371.7 942.2 360.8L960 350L960 541L942.2 541C924.3 541 888.7 541 853.2 541C817.7 541 782.3 541 746.8 541C711.3 541 675.7 541 640 541C604.3 541 568.7 541 533.2 541C497.7 541 462.3 541 426.8 541C391.3 541 355.7 541 320 541C284.3 541 248.7 541 213.2 541C177.7 541 142.3 541 106.8 541C71.3 541 35.7 541 17.8 541L0 541Z" fill="#cb6faf"></path><path d="M0 453L17.8 449.3C35.7 445.7 71.3 438.3 106.8 428.8C142.3 419.3 177.7 407.7 213.2 406.8C248.7 406 284.3 416 320 422.3C355.7 428.7 391.3 431.3 426.8 428.5C462.3 425.7 497.7 417.3 533.2 419.2C568.7 421 604.3 433 640 438.5C675.7 444 711.3 443 746.8 442.7C782.3 442.3 817.7 442.7 853.2 437.8C888.7 433 924.3 423 942.2 418L960 413L960 541L942.2 541C924.3 541 888.7 541 853.2 541C817.7 541 782.3 541 746.8 541C711.3 541 675.7 541 640 541C604.3 541 568.7 541 533.2 541C497.7 541 462.3 541 426.8 541C391.3 541 355.7 541 320 541C284.3 541 248.7 541 213.2 541C177.7 541 142.3 541 106.8 541C71.3 541 35.7 541 17.8 541L0 541Z" fill="#ec7398"></path><path d="M0 444L17.8 443C35.7 442 71.3 440 106.8 446C142.3 452 177.7 466 213.2 471.7C248.7 477.3 284.3 474.7 320 473.3C355.7 472 391.3 472 426.8 472C462.3 472 497.7 472 533.2 473C568.7 474 604.3 476 640 469.2C675.7 462.3 711.3 446.7 746.8 439.2C782.3 431.7 817.7 432.3 853.2 438.7C888.7 445 924.3 457 942.2 463L960 469L960 541L942.2 541C924.3 541 888.7 541 853.2 541C817.7 541 782.3 541 746.8 541C711.3 541 675.7 541 640 541C604.3 541 568.7 541 533.2 541C497.7 541 462.3 541 426.8 541C391.3 541 355.7 541 320 541C284.3 541 248.7 541 213.2 541C177.7 541 142.3 541 106.8 541C71.3 541 35.7 541 17.8 541L0 541Z" fill="#fd827e"></path><path d="M0 485L17.8 489.3C35.7 493.7 71.3 502.3 106.8 505.5C142.3 508.7 177.7 506.3 213.2 503.2C248.7 500 284.3 496 320 491.2C355.7 486.3 391.3 480.7 426.8 482.3C462.3 484 497.7 493 533.2 494.5C568.7 496 604.3 490 640 491C675.7 492 711.3 500 746.8 500.7C782.3 501.3 817.7 494.7 853.2 491.2C888.7 487.7 924.3 487.3 942.2 487.2L960 487L960 541L942.2 541C924.3 541 888.7 541 853.2 541C817.7 541 782.3 541 746.8 541C711.3 541 675.7 541 640 541C604.3 541 568.7 541 533.2 541C497.7 541 462.3 541 426.8 541C391.3 541 355.7 541 320 541C284.3 541 248.7 541 213.2 541C177.7 541 142.3 541 106.8 541C71.3 541 35.7 541 17.8 541L0 541Z" fill="#ff9966"></path></svg>