<svg role="img" viewBox="0 0 24 24" xmlns="http://www.w3.org/2000/svg"><title>GitHub</title><path d="M12 .297c-6.63 0-12 5.373-12 12 0 5.303 3.438 9.8 8.205 11.385.6.113.82-.258.82-.577 0-.285-.01-1.04-.015-2.04-3.338.724-4.042-1.415-4.042-1.415C4.422 17.07 3.633 16.7 3.633 16.7c-1.087-.744.084-.729.084-.729 1.205.084 1.84 1.235 1.84 1.835 1.07 1.835 2.807 1.305 3.495.998.108-.775.42-1.305.762-1.605-2.665-.3-5.467-1.335-5.467-5.93 0-1.31.468-2.38 1.235-3.22-.135-.303-.54-1.523.105-3.176 0 0 1.005-.322 3.3 1.23a11.45 11.45 0 013.003-.404 11.437 11.437 0 013.003.404c2.28-1.552 3.285-1.23 3.285-1.23.645 1.653.24 2.873.12 3.176.765.84 1.23 1.91 1.23 3.22 0 4.61-2.807 5.625-5.475 5.921.435.375.825 1.096.825 2.22 0 1.605-.015 2.896-.015 3.286 0 .315.21.69.825.57C20.565 22.292 24 17.792 24 12.297c0-6.627-5.373-12-12-12" stroke="none" fill="#ffffff"/></svg> 